<svg width="121" height="93" viewBox="0 0 121 93" fill="none" xmlns="http://www.w3.org/2000/svg">
<path fill-rule="evenodd" clip-rule="evenodd" d="M114.155 33.0973C112.278 27.386 113.391 23.2429 110.148 19.1422C106.387 15.5553 102 16.2677 97.2383 13.4651C92.6854 10.3269 91.615 6.18765 87.0891 4.47936C81.9723 2.93052 78.8167 5.50035 73.0016 4.77447C66.6266 3.5381 65.7506 0.205098 60.2207 0H60.1788C54.6457 0.205098 53.7691 3.5381 47.394 4.77447C41.5796 5.50035 38.422 2.93052 33.3072 4.47936C28.78 6.18765 27.7129 10.3269 23.1573 13.4651C18.3939 16.2677 14.009 15.5553 10.2464 19.1422C7.00577 23.2429 8.11923 27.386 6.23922 33.0973C3.9724 38.6317 0 40.5521 0 46.0731C0 51.5972 3.9724 53.5762 6.23922 59.108C8.11923 64.8225 7.00577 68.9617 10.2464 73.0656C14.009 76.6526 18.3939 75.9402 23.1573 78.7396C27.7129 81.8784 28.78 86.0151 33.3072 87.7234C38.422 89.2793 41.5796 86.7024 47.394 87.4315C53.7691 88.6678 54.6457 92.0008 60.1788 92.2098H60.2207C65.7506 92.0008 66.6266 88.6678 73.0016 87.4315C78.8167 86.7024 81.9723 89.2793 87.0891 87.7234C91.615 86.0151 92.6854 81.8784 97.2383 78.7396C102 75.9402 106.387 76.6526 110.148 73.0656C113.391 68.9617 112.278 64.8225 114.155 59.108C116.425 53.5762 120.412 51.5381 120.412 46.0731C120.412 40.5206 116.425 38.6317 114.155 33.0973" fill="white"/>
<path fill-rule="evenodd" clip-rule="evenodd" d="M69.2409 59.3274L71.2181 54.4694H83.0497C83.5987 55.9977 84.4715 58.7989 84.4715 58.7989C84.4715 58.7989 84.7811 59.7473 84.8815 60.1427C84.9169 60.2925 84.9548 60.4834 84.9478 60.6776C84.9375 61.1232 84.6974 61.5874 83.7281 61.6054L82.4904 61.633C82.177 61.633 81.962 61.8375 81.962 62.1602V64.1746C81.962 64.4832 82.1673 64.6953 82.4904 64.6986H97.4294C97.7429 64.6953 97.9617 64.5005 97.9617 64.1675V62.1602C97.9617 61.8343 97.7493 61.633 97.4326 61.633L96.7967 61.6298C95.2707 61.6227 94.8157 61.1913 94.3568 59.8932C94.3497 59.8862 84.691 32.3587 83.5125 28.9942C83.4069 28.6984 83.1894 28.5358 82.8412 28.5358H78.695C78.4028 28.5358 78.1422 28.647 78.007 28.9942L65.0207 60.0353C64.753 60.6673 64.5129 61.046 63.8976 61.3585C63.2862 61.6671 62.201 61.6227 62.201 61.6227L61.858 61.633C61.5317 61.633 61.3296 61.8375 61.3296 62.1602V64.1707C61.3296 64.5076 61.5413 64.6953 61.858 64.6986H71.9654C72.2988 64.6953 72.497 64.487 72.497 64.1675V62.157C72.497 61.8272 72.2852 61.6362 71.9654 61.633L70.8429 61.6227C69.918 61.6118 68.9416 61.5559 68.9455 60.5355C68.9455 60.2263 69.035 59.8341 69.2409 59.3274ZM78.1647 37.5831L72.4164 51.3331H82.4998L78.1647 37.5831Z" fill="#212B36"/>
<path fill-rule="evenodd" clip-rule="evenodd" d="M23.1699 46.7061C23.1699 35.3935 30.0534 28.2891 39.4142 28.2891C42.3825 28.2891 44.0476 28.8864 45.031 29.2927C45.8272 29.6611 46.187 29.8971 46.7064 29.8971C47.4259 29.8971 47.6428 29.4901 47.8919 28.9519C48.0412 28.6401 48.1384 28.5353 48.4049 28.5353H50.5095C50.8216 28.5353 51.0392 28.7372 51.036 29.067V38.254C51.0392 38.5742 50.8358 38.7786 50.5095 38.7786H48.4473C48.1596 38.7786 47.9962 38.6706 47.9176 38.2996C47.1305 33.9836 45.5929 31.3758 40.7452 31.3758C34.6418 31.3758 33.1717 40.782 33.1717 45.4247C33.1717 52.4906 33.973 61.9277 41.0013 61.9277C46.0911 61.9277 47.6029 59.046 48.2517 54.9312C48.3334 54.5358 48.587 54.4696 48.7711 54.4696H50.8429C51.1525 54.4696 51.3732 54.667 51.3732 55.0013V64.1709C51.3732 64.4904 51.1692 64.6955 50.8429 64.6988H48.7331C48.5259 64.6988 48.363 64.6428 48.2343 64.3612C48.112 64.0937 47.8848 63.7613 47.395 63.7613C46.223 63.7613 44.1415 64.9836 39.4747 64.9836C28.9206 64.9836 23.1699 56.2615 23.1699 46.7061" fill="#212B36"/>
<path fill-rule="evenodd" clip-rule="evenodd" d="M54.2389 42.4556C52.1845 43.0773 49.6679 44.9521 49.7181 47.6293C49.7793 50.709 52.523 52.5215 55.9297 52.5215C57.3128 52.5215 59.1117 52.2405 60.6204 51.0601C61.858 52.31 63.9221 52.1608 63.9221 52.1608H65.5769C65.9109 52.1608 65.9972 52.0046 66.0673 51.838L66.5713 50.6332C66.7403 50.2137 66.4141 50.2223 66.2647 50.2262C66.252 50.2265 66.2405 50.2268 66.2308 50.2268H65.4932C63.8005 50.223 62.994 48.8587 62.994 48.8587C63.8921 47.9621 64.1402 47.6105 64.62 46.9305C64.6976 46.8205 64.7812 46.7019 64.8747 46.5711C65.2917 45.9802 65.8794 45.0145 65.8794 45.0145L65.8797 45.014C66.1466 44.6086 66.3204 44.3446 66.7688 44.3446H67.3327C67.5689 44.3414 67.7079 44.2333 67.8192 44.0147L68.3052 42.9037C68.4893 42.4449 68.2455 42.4467 68.0243 42.4483C68.0112 42.4484 67.9981 42.4485 67.9853 42.4485H63.8874C63.5327 42.4485 63.4465 42.626 63.422 42.7301C63.0951 44.0392 62.4656 45.3482 61.5375 46.6534L58.9798 42.8478C60.8431 42.0358 62.8827 40.7718 62.8827 38.7336C62.8827 36.4043 60.9505 34.9281 58.2879 34.9281C55.5976 34.9281 53.0431 36.383 53.0431 39.3586C53.0431 40.6432 53.6011 41.6089 54.2389 42.4556ZM57.8407 41.2498C57.1951 40.2355 56.833 39.522 56.833 38.424C56.833 37.4867 57.3632 36.6665 58.3102 36.6665C59.1834 36.6665 59.583 37.527 59.583 38.3943C59.583 39.6528 59.0113 40.584 57.8407 41.2498ZM54.9646 43.9998L58.6664 49.1368C57.9399 49.8707 57.2493 50.4165 56.1252 50.4165C54.3131 50.4165 53.1664 49.2537 53.1664 47.2802C53.1664 46.0247 53.8909 44.6828 54.9646 43.9998Z" fill="#212B36"/>
</svg>
